M48
METRIC,LZ,000.000
;FILE_FORMAT=3:3
;TYPE=PLATED
;Layer: PTH_Through_Via
;EasyEDA v6.5.54, 2026-03-22 16:49:25
;17edeb4800b5435c9cbbdbcc0facfb53,dab029622f68425ca1211968fdfe3d34,10
;Gerber Generator version 0.2
;Holesize 1 = 0.400 mm
T01C0.400
%
G05
G90
T01
X042799Y045339
X044323Y036830
X040767Y030099
X057023Y045593
X065278Y029083
X061341Y052959
X059309Y051689
X064135Y050419
X047371Y049276
X041529Y052324
X056388Y041021
X058166Y035052
X047498Y028575
X049403Y033909
X042037Y028321
X048387Y035687
X049022Y032131
X045212Y022860
X055372Y049530
X060325Y021447
X066802Y023241
M30
