M48
METRIC,LZ,000.000
;FILE_FORMAT=3:3
;TYPE=PLATED
;Layer: PTH_Through
;EasyEDA v6.5.54, 2026-03-22 16:49:25
;17edeb4800b5435c9cbbdbcc0facfb53,dab029622f68425ca1211968fdfe3d34,10
;Gerber Generator version 0.2
;Holesize 1 = 0.400 mm
T01C0.400
;Holesize 2 = 0.889 mm
T02C0.889
;Holesize 3 = 1.000 mm
T03C1.000
;Holesize 4 = 1.101 mm
T04C1.101
;Holesize 5 = 1.301 mm
T05C1.301
;Holesize 6 = 1.524 mm
T06C1.524
%
G05
G90
T01
X042799Y045339
X044323Y036830
X040767Y030099
X057023Y045593
X065278Y029083
X061341Y052959
X059309Y051689
X064135Y050419
X047371Y049276
X041529Y052324
X056388Y041021
X058166Y035052
X047498Y028575
X049403Y033909
X042037Y028321
X048387Y035687
X049022Y032131
X045212Y022860
X055372Y049530
X060325Y021447
X066802Y023241
T02
X054864Y031369
X057404Y031369
X059944Y031369
X062484Y031369
X038227Y019558
X035687Y019558
X033147Y019558
X030607Y019558
T03
X054864Y044422
X054864Y040922
X044986Y048133
X048486Y048133
T04
X039609Y056769
X053609Y056769
T05
X069723Y028357
X069723Y033365
X069596Y039406
X069596Y044414
X010414Y046573
X010414Y041565
X010414Y034254
X010414Y029246
T06
X019698Y053370
X033898Y047371
X031898Y041371
X031898Y053371
X019698Y041372
X019698Y036479
X033898Y030480
X031898Y024480
X031898Y036480
X019698Y024481
M30
