G04 Layer: BottomSilkscreenLayer*
G04 EasyEDA v6.5.54, 2026-03-22 16:49:25*
G04 17edeb4800b5435c9cbbdbcc0facfb53,dab029622f68425ca1211968fdfe3d34,10*
G04 Gerber Generator version 0.2*
G04 Scale: 100 percent, Rotated: No, Reflected: No *
G04 Dimensions in millimeters *
G04 leading zeros omitted , absolute positions ,4 integer and 5 decimal *
%FSLAX45Y45*%
%MOMM*%

%ADD10C,0.2032*%
%ADD11C,0.0186*%

%LPD*%
D10*
X3060700Y5869178D02*
G01*
X3060700Y5675376D01*
X3060700Y5869178D02*
G01*
X2986786Y5675376D01*
X2912872Y5869178D02*
G01*
X2986786Y5675376D01*
X2912872Y5869178D02*
G01*
X2912872Y5675376D01*
X2741168Y5804662D02*
G01*
X2741168Y5675376D01*
X2741168Y5776976D02*
G01*
X2759709Y5795263D01*
X2777997Y5804662D01*
X2805684Y5804662D01*
X2824225Y5795263D01*
X2842768Y5776976D01*
X2851911Y5749289D01*
X2851911Y5730747D01*
X2842768Y5703062D01*
X2824225Y5684520D01*
X2805684Y5675376D01*
X2777997Y5675376D01*
X2759709Y5684520D01*
X2741168Y5703062D01*
X2569209Y5869178D02*
G01*
X2569209Y5675376D01*
X2569209Y5776976D02*
G01*
X2587752Y5795263D01*
X2606293Y5804662D01*
X2633979Y5804662D01*
X2652522Y5795263D01*
X2670809Y5776976D01*
X2680208Y5749289D01*
X2680208Y5730747D01*
X2670809Y5703062D01*
X2652522Y5684520D01*
X2633979Y5675376D01*
X2606293Y5675376D01*
X2587752Y5684520D01*
X2569209Y5703062D01*
X2508250Y5749289D02*
G01*
X2397506Y5749289D01*
X2397506Y5767578D01*
X2406650Y5786120D01*
X2416047Y5795263D01*
X2434590Y5804662D01*
X2462275Y5804662D01*
X2480563Y5795263D01*
X2499106Y5776976D01*
X2508250Y5749289D01*
X2508250Y5730747D01*
X2499106Y5703062D01*
X2480563Y5684520D01*
X2462275Y5675376D01*
X2434590Y5675376D01*
X2416047Y5684520D01*
X2397506Y5703062D01*
X2194306Y5869178D02*
G01*
X2194306Y5675376D01*
X2133345Y5804662D02*
G01*
X2133345Y5675376D01*
X2133345Y5767578D02*
G01*
X2105659Y5795263D01*
X2087118Y5804662D01*
X2059431Y5804662D01*
X2040890Y5795263D01*
X2031745Y5767578D01*
X2031745Y5675376D01*
X1828545Y5869178D02*
G01*
X1828545Y5675376D01*
X1767586Y5804662D02*
G01*
X1767586Y5675376D01*
X1767586Y5767578D02*
G01*
X1739900Y5795263D01*
X1721357Y5804662D01*
X1693671Y5804662D01*
X1675129Y5795263D01*
X1665986Y5767578D01*
X1665986Y5675376D01*
X1494281Y5869178D02*
G01*
X1494281Y5675376D01*
X1494281Y5776976D02*
G01*
X1512570Y5795263D01*
X1531112Y5804662D01*
X1558797Y5804662D01*
X1577339Y5795263D01*
X1595881Y5776976D01*
X1605026Y5749289D01*
X1605026Y5730747D01*
X1595881Y5703062D01*
X1577339Y5684520D01*
X1558797Y5675376D01*
X1531112Y5675376D01*
X1512570Y5684520D01*
X1494281Y5703062D01*
X1433321Y5869178D02*
G01*
X1423923Y5860034D01*
X1414779Y5869178D01*
X1423923Y5878576D01*
X1433321Y5869178D01*
X1423923Y5804662D02*
G01*
X1423923Y5675376D01*
X1243076Y5804662D02*
G01*
X1243076Y5675376D01*
X1243076Y5776976D02*
G01*
X1261363Y5795263D01*
X1279905Y5804662D01*
X1307592Y5804662D01*
X1326134Y5795263D01*
X1344676Y5776976D01*
X1353820Y5749289D01*
X1353820Y5730747D01*
X1344676Y5703062D01*
X1326134Y5684520D01*
X1307592Y5675376D01*
X1279905Y5675376D01*
X1261363Y5684520D01*
X1243076Y5703062D01*
M02*
