G04 Layer: TopSolderMaskLayer*
G04 EasyEDA v6.5.54, 2026-03-22 16:49:25*
G04 17edeb4800b5435c9cbbdbcc0facfb53,dab029622f68425ca1211968fdfe3d34,10*
G04 Gerber Generator version 0.2*
G04 Scale: 100 percent, Rotated: No, Reflected: No *
G04 Dimensions in millimeters *
G04 leading zeros omitted , absolute positions ,4 integer and 5 decimal *
%FSLAX45Y45*%
%MOMM*%

%AMMACRO1*4,1,8,-1.131,-0.9508,-1.1608,-0.921,-1.1608,0.9211,-1.131,0.9508,1.131,0.9508,1.1608,0.9211,1.1608,-0.921,1.131,-0.9508,-1.131,-0.9508,0*%
%AMMACRO2*4,1,8,-0.7095,-0.6171,-0.7393,-0.5873,-0.7393,0.5873,-0.7095,0.6171,0.7095,0.6171,0.7393,0.5873,0.7393,-0.5873,0.7095,-0.6171,-0.7095,-0.6171,0*%
%AMMACRO3*4,1,8,-0.5873,-0.7393,-0.6171,-0.7095,-0.6171,0.7095,-0.5873,0.7393,0.5873,0.7393,0.6171,0.7095,0.6171,-0.7095,0.5873,-0.7393,-0.5873,-0.7393,0*%
%AMMACRO4*4,1,8,-0.6961,-0.7558,-0.7258,-0.726,-0.7258,0.7261,-0.6961,0.7558,0.696,0.7558,0.7258,0.7261,0.7258,-0.726,0.696,-0.7558,-0.6961,-0.7558,0*%
%AMMACRO5*4,1,8,-0.7261,-0.7258,-0.7558,-0.696,-0.7558,0.6961,-0.7261,0.7258,0.726,0.7258,0.7558,0.6961,0.7558,-0.696,0.726,-0.7258,-0.7261,-0.7258,0*%
%AMMACRO6*4,1,8,-0.9211,-1.1608,-0.9508,-1.131,-0.9508,1.1311,-0.9211,1.1608,0.921,1.1608,0.9508,1.1311,0.9508,-1.131,0.921,-1.1608,-0.9211,-1.1608,0*%
%AMMACRO7*4,1,8,-0.8085,-0.8382,-0.8382,-0.8084,-0.8382,0.8085,-0.8085,0.8382,0.8084,0.8382,0.8382,0.8085,0.8382,-0.8084,0.8084,-0.8382,-0.8085,-0.8382,0*%
%AMMACRO8*4,1,8,-0.471,-0.5508,-0.5008,-0.521,-0.5008,0.5211,-0.471,0.5508,0.471,0.5508,0.5008,0.5211,0.5008,-0.521,0.471,-0.5508,-0.471,-0.5508,0*%
%AMMACRO9*4,1,8,-0.9711,-0.9008,-1.0008,-0.871,-1.0008,0.8711,-0.9711,0.9008,0.971,0.9008,1.0008,0.8711,1.0008,-0.871,0.971,-0.9008,-0.9711,-0.9008,0*%
%AMMACRO10*4,1,8,-0.5398,-0.3168,-0.5696,-0.287,-0.5696,0.287,-0.5398,0.3168,0.5398,0.3168,0.5696,0.287,0.5696,-0.287,0.5398,-0.3168,-0.5398,-0.3168,0*%
%AMMACRO11*4,1,8,-0.5398,-0.3168,-0.5696,-0.287,-0.5696,0.2871,-0.5398,0.3168,0.5398,0.3168,0.5696,0.2871,0.5696,-0.287,0.5398,-0.3168,-0.5398,-0.3168,0*%
%ADD10MACRO1*%
%ADD11MACRO2*%
%ADD12MACRO3*%
%ADD13C,2.8956*%
%ADD14MACRO4*%
%ADD15MACRO5*%
%ADD16MACRO6*%
%ADD17C,0.0152*%
%ADD18MACRO7*%
%ADD19C,1.6764*%
%ADD20C,1.9016*%
%ADD21MACRO8*%
%ADD22MACRO9*%
%ADD23O,2.051812X0.670001*%
%ADD24C,1.7016*%
%ADD25MACRO10*%
%ADD26MACRO11*%
%ADD27C,2.1016*%
%ADD28O,1.843608X0.465607*%

%LPD*%
D10*
G01*
X3873601Y4535373D03*
G01*
X3873397Y4100601D03*
G01*
X3873601Y2808173D03*
G01*
X3873397Y2373401D03*
D11*
G01*
X4152900Y4710104D03*
G01*
X4152900Y4510095D03*
G01*
X4152900Y4865695D03*
G01*
X4152900Y5065704D03*
D12*
G01*
X4129095Y3898900D03*
G01*
X4329104Y3898900D03*
D11*
G01*
X3949700Y3897304D03*
G01*
X3949700Y3697295D03*
D13*
G01*
X1969820Y5337047D03*
G01*
X3389833Y4737100D03*
G01*
X3189833Y4137101D03*
G01*
X3189833Y5337098D03*
G01*
X1969820Y4137152D03*
G01*
X1969820Y3647947D03*
G01*
X3389833Y3048000D03*
G01*
X3189833Y2448001D03*
G01*
X3189833Y3647998D03*
G01*
X1969820Y2448052D03*
D14*
G01*
X4241800Y3036897D03*
G01*
X4241800Y3236902D03*
G01*
X4241800Y3468697D03*
G01*
X4241800Y3668702D03*
D15*
G01*
X5522902Y5283200D03*
G01*
X5322897Y5283200D03*
D14*
G01*
X5943600Y3706802D03*
G01*
X5943600Y3506797D03*
G01*
X5664200Y3706802D03*
G01*
X5664200Y3506797D03*
D16*
G01*
X7113480Y4940206D03*
G01*
X6678719Y4940393D03*
G01*
X5370619Y4902293D03*
G01*
X5805380Y4902106D03*
D18*
G01*
X5486400Y3136900D03*
D19*
G01*
X5740400Y3136900D03*
G01*
X5994400Y3136900D03*
G01*
X6248400Y3136900D03*
D18*
G01*
X3822700Y1955800D03*
D19*
G01*
X3568700Y1955800D03*
G01*
X3314700Y1955800D03*
G01*
X3060700Y1955800D03*
D20*
G01*
X3960901Y5676900D03*
G01*
X5360898Y5676900D03*
D21*
G01*
X4872890Y4216400D03*
G01*
X4702891Y4216400D03*
D22*
G01*
X5714998Y2451101D03*
G01*
X5714998Y2705101D03*
G01*
X4749798Y2705101D03*
G01*
X4749798Y2451101D03*
G01*
X5714998Y1892301D03*
G01*
X5714998Y2146301D03*
G01*
X4749798Y2146301D03*
G01*
X4749798Y1892301D03*
D23*
G01*
X5787186Y5546217D03*
G01*
X5787186Y5419217D03*
G01*
X5787186Y5292217D03*
G01*
X5787186Y5165217D03*
G01*
X6328206Y5546217D03*
G01*
X6328206Y5419217D03*
G01*
X6328206Y5292217D03*
G01*
X6328206Y5165217D03*
D24*
G01*
X5486400Y4442205D03*
G01*
X5486400Y4092194D03*
G01*
X4498593Y4813300D03*
G01*
X4848606Y4813300D03*
D25*
G01*
X3788771Y3276605D03*
D26*
G01*
X4009022Y3376608D03*
G01*
X4009022Y3176601D03*
D25*
G01*
X3737971Y4978405D03*
D26*
G01*
X3958222Y5078408D03*
G01*
X3958222Y4878401D03*
D11*
G01*
X5994400Y2690804D03*
G01*
X5994400Y2490795D03*
G01*
X6235700Y2490795D03*
G01*
X6235700Y2690804D03*
G01*
X4483100Y2690804D03*
G01*
X4483100Y2490795D03*
G01*
X4203700Y2678104D03*
G01*
X4203700Y2478095D03*
G01*
X6286500Y1944695D03*
G01*
X6286500Y2144704D03*
G01*
X6032500Y2144704D03*
G01*
X6032500Y1944695D03*
G01*
X4495800Y2119304D03*
G01*
X4495800Y1919295D03*
G01*
X4254500Y2119304D03*
G01*
X4254500Y1919295D03*
G01*
X7137400Y5497504D03*
G01*
X7137400Y5297495D03*
G01*
X6864350Y5497504D03*
G01*
X6864350Y5297495D03*
G01*
X6591300Y5497504D03*
G01*
X6591300Y5297495D03*
G01*
X6184900Y4557704D03*
G01*
X6184900Y4357695D03*
D12*
G01*
X6186495Y4889500D03*
G01*
X6386504Y4889500D03*
G01*
X4281495Y4216400D03*
G01*
X4481504Y4216400D03*
D27*
G01*
X6972300Y2835655D03*
G01*
X6972300Y3336544D03*
G01*
X6959600Y3940555D03*
G01*
X6959600Y4441444D03*
G01*
X1041400Y4657344D03*
G01*
X1041400Y4156455D03*
G01*
X1041400Y3425444D03*
G01*
X1041400Y2924555D03*
D28*
G01*
X5176596Y3085693D03*
G01*
X5176596Y3150692D03*
G01*
X5176596Y3215690D03*
G01*
X5176596Y3280689D03*
G01*
X5176596Y3345713D03*
G01*
X5176596Y3410712D03*
G01*
X5176596Y3475710D03*
G01*
X5176596Y3540709D03*
G01*
X5176596Y3605707D03*
G01*
X5176596Y3670706D03*
G01*
X4602403Y3085693D03*
G01*
X4602403Y3150692D03*
G01*
X4602403Y3215690D03*
G01*
X4602403Y3280689D03*
G01*
X4602403Y3345713D03*
G01*
X4602403Y3410712D03*
G01*
X4602403Y3475710D03*
G01*
X4602403Y3540709D03*
G01*
X4602403Y3605707D03*
G01*
X4602403Y3670706D03*
M02*
