G04 Layer: TopSilkscreenLayer*
G04 EasyEDA v6.5.54, 2026-03-22 16:49:25*
G04 17edeb4800b5435c9cbbdbcc0facfb53,dab029622f68425ca1211968fdfe3d34,10*
G04 Gerber Generator version 0.2*
G04 Scale: 100 percent, Rotated: No, Reflected: No *
G04 Dimensions in millimeters *
G04 leading zeros omitted , absolute positions ,4 integer and 5 decimal *
%FSLAX45Y45*%
%MOMM*%

%ADD10C,0.2032*%
%ADD11C,0.1524*%
%ADD12C,0.3000*%
%ADD13C,0.2540*%
%ADD14C,0.2030*%
%ADD15C,0.1500*%
%ADD16C,0.8000*%
%ADD17C,0.0101*%

%LPD*%
D10*
X1333500Y5894578D02*
G01*
X1333500Y5700776D01*
X1333500Y5700776D02*
G01*
X1444244Y5700776D01*
X1505204Y5894578D02*
G01*
X1505204Y5700776D01*
X1505204Y5894578D02*
G01*
X1625345Y5894578D01*
X1505204Y5802376D02*
G01*
X1579118Y5802376D01*
X1505204Y5700776D02*
G01*
X1625345Y5700776D01*
X1686305Y5894578D02*
G01*
X1815592Y5700776D01*
X1815592Y5894578D02*
G01*
X1686305Y5700776D01*
X1876552Y5894578D02*
G01*
X1876552Y5700776D01*
X1876552Y5894578D02*
G01*
X1959609Y5894578D01*
X1987550Y5885434D01*
X1996693Y5876289D01*
X2005838Y5857747D01*
X2005838Y5839205D01*
X1996693Y5820663D01*
X1987550Y5811520D01*
X1959609Y5802376D01*
X1876552Y5802376D01*
X1941322Y5802376D02*
G01*
X2005838Y5700776D01*
X2122170Y5894578D02*
G01*
X2094484Y5885434D01*
X2076195Y5857747D01*
X2066797Y5811520D01*
X2066797Y5783834D01*
X2076195Y5737605D01*
X2094484Y5709920D01*
X2122170Y5700776D01*
X2140711Y5700776D01*
X2168397Y5709920D01*
X2186940Y5737605D01*
X2196084Y5783834D01*
X2196084Y5811520D01*
X2186940Y5857747D01*
X2168397Y5885434D01*
X2140711Y5894578D01*
X2122170Y5894578D01*
X2257043Y5857747D02*
G01*
X2275586Y5866892D01*
X2303272Y5894578D01*
X2303272Y5700776D01*
D11*
X3643884Y4241800D02*
G01*
X3752850Y4241800D01*
X3643884Y4241800D02*
G01*
X3643884Y4278121D01*
X3648963Y4293870D01*
X3659377Y4304029D01*
X3669791Y4309363D01*
X3685540Y4314444D01*
X3711447Y4314444D01*
X3726941Y4309363D01*
X3737356Y4304029D01*
X3747770Y4293870D01*
X3752850Y4278121D01*
X3752850Y4241800D01*
X3669791Y4354068D02*
G01*
X3664711Y4354068D01*
X3654297Y4359147D01*
X3648963Y4364481D01*
X3643884Y4374895D01*
X3643884Y4395470D01*
X3648963Y4405884D01*
X3654297Y4411218D01*
X3664711Y4416297D01*
X3675125Y4416297D01*
X3685540Y4411218D01*
X3701034Y4400804D01*
X3752850Y4348734D01*
X3752850Y4421631D01*
X3618484Y2527300D02*
G01*
X3727450Y2527300D01*
X3618484Y2527300D02*
G01*
X3618484Y2563621D01*
X3623563Y2579370D01*
X3633977Y2589529D01*
X3644391Y2594863D01*
X3660140Y2599944D01*
X3686047Y2599944D01*
X3701541Y2594863D01*
X3711956Y2589529D01*
X3722370Y2579370D01*
X3727450Y2563621D01*
X3727450Y2527300D01*
X3618484Y2644647D02*
G01*
X3618484Y2701797D01*
X3660140Y2670810D01*
X3660140Y2686304D01*
X3665220Y2696718D01*
X3670300Y2701797D01*
X3686047Y2707131D01*
X3696461Y2707131D01*
X3711956Y2701797D01*
X3722370Y2691384D01*
X3727450Y2675889D01*
X3727450Y2660395D01*
X3722370Y2644647D01*
X3717290Y2639568D01*
X3706875Y2634234D01*
X3948684Y4521200D02*
G01*
X4057650Y4521200D01*
X3948684Y4521200D02*
G01*
X3948684Y4567936D01*
X3953763Y4583429D01*
X3959097Y4588763D01*
X3969511Y4593844D01*
X3979925Y4593844D01*
X3990340Y4588763D01*
X3995420Y4583429D01*
X4000500Y4567936D01*
X4000500Y4521200D01*
X4000500Y4557521D02*
G01*
X4057650Y4593844D01*
X3969511Y4628134D02*
G01*
X3964177Y4638547D01*
X3948684Y4654295D01*
X4057650Y4654295D01*
X3948684Y4740402D02*
G01*
X4021327Y4688586D01*
X4021327Y4766310D01*
X3948684Y4740402D02*
G01*
X4057650Y4740402D01*
X4114800Y5258815D02*
G01*
X4114800Y5149850D01*
X4114800Y5258815D02*
G01*
X4161536Y5258815D01*
X4177029Y5253736D01*
X4182363Y5248402D01*
X4187443Y5237987D01*
X4187443Y5227573D01*
X4182363Y5217160D01*
X4177029Y5212079D01*
X4161536Y5207000D01*
X4114800Y5207000D01*
X4151122Y5207000D02*
G01*
X4187443Y5149850D01*
X4221734Y5237987D02*
G01*
X4232147Y5243321D01*
X4247895Y5258815D01*
X4247895Y5149850D01*
X4344415Y5258815D02*
G01*
X4292600Y5258815D01*
X4287265Y5212079D01*
X4292600Y5217160D01*
X4308093Y5222494D01*
X4323588Y5222494D01*
X4339336Y5217160D01*
X4349750Y5207000D01*
X4354829Y5191252D01*
X4354829Y5180837D01*
X4349750Y5165344D01*
X4339336Y5154929D01*
X4323588Y5149850D01*
X4308093Y5149850D01*
X4292600Y5154929D01*
X4287265Y5160010D01*
X4282186Y5170423D01*
X4038600Y4103115D02*
G01*
X4038600Y3994150D01*
X4038600Y4103115D02*
G01*
X4085336Y4103115D01*
X4100829Y4098036D01*
X4106163Y4092702D01*
X4111243Y4082287D01*
X4111243Y4071873D01*
X4106163Y4061460D01*
X4100829Y4056379D01*
X4085336Y4051300D01*
X4038600Y4051300D01*
X4074922Y4051300D02*
G01*
X4111243Y3994150D01*
X4145534Y4082287D02*
G01*
X4155947Y4087621D01*
X4171695Y4103115D01*
X4171695Y3994150D01*
X4268215Y4087621D02*
G01*
X4263136Y4098036D01*
X4247388Y4103115D01*
X4236974Y4103115D01*
X4221479Y4098036D01*
X4211065Y4082287D01*
X4205986Y4056379D01*
X4205986Y4030471D01*
X4211065Y4009644D01*
X4221479Y3999229D01*
X4236974Y3994150D01*
X4242308Y3994150D01*
X4257802Y3999229D01*
X4268215Y4009644D01*
X4273550Y4025137D01*
X4273550Y4030471D01*
X4268215Y4045965D01*
X4257802Y4056379D01*
X4242308Y4061460D01*
X4236974Y4061460D01*
X4221479Y4056379D01*
X4211065Y4045965D01*
X4205986Y4030471D01*
X3732784Y3695700D02*
G01*
X3841750Y3695700D01*
X3732784Y3695700D02*
G01*
X3732784Y3742436D01*
X3737863Y3757929D01*
X3743197Y3763263D01*
X3753611Y3768344D01*
X3764025Y3768344D01*
X3774440Y3763263D01*
X3779520Y3757929D01*
X3784600Y3742436D01*
X3784600Y3695700D01*
X3784600Y3732021D02*
G01*
X3841750Y3768344D01*
X3753611Y3802634D02*
G01*
X3748277Y3813047D01*
X3732784Y3828795D01*
X3841750Y3828795D01*
X3732784Y3935729D02*
G01*
X3841750Y3883660D01*
X3732784Y3863086D02*
G01*
X3732784Y3935729D01*
X2933700Y5754115D02*
G01*
X2933700Y5645150D01*
X2933700Y5754115D02*
G01*
X2980436Y5754115D01*
X2995929Y5749036D01*
X3001263Y5743702D01*
X3006343Y5733287D01*
X3006343Y5722873D01*
X3001263Y5712460D01*
X2995929Y5707379D01*
X2980436Y5702300D01*
X2933700Y5702300D01*
X2970022Y5702300D02*
G01*
X3006343Y5645150D01*
X3040634Y5754115D02*
G01*
X3040634Y5645150D01*
X3040634Y5645150D02*
G01*
X3103118Y5645150D01*
X3137408Y5754115D02*
G01*
X3178809Y5702300D01*
X3178809Y5645150D01*
X3220465Y5754115D02*
G01*
X3178809Y5702300D01*
X3254756Y5733287D02*
G01*
X3265170Y5738621D01*
X3280663Y5754115D01*
X3280663Y5645150D01*
X2095500Y2121915D02*
G01*
X2095500Y2012950D01*
X2095500Y2121915D02*
G01*
X2142236Y2121915D01*
X2157729Y2116836D01*
X2163063Y2111502D01*
X2168143Y2101087D01*
X2168143Y2090673D01*
X2163063Y2080260D01*
X2157729Y2075179D01*
X2142236Y2070100D01*
X2095500Y2070100D01*
X2131822Y2070100D02*
G01*
X2168143Y2012950D01*
X2202434Y2121915D02*
G01*
X2202434Y2012950D01*
X2202434Y2012950D02*
G01*
X2264918Y2012950D01*
X2299208Y2121915D02*
G01*
X2340609Y2070100D01*
X2340609Y2012950D01*
X2382265Y2121915D02*
G01*
X2340609Y2070100D01*
X2421890Y2096007D02*
G01*
X2421890Y2101087D01*
X2426970Y2111502D01*
X2432050Y2116836D01*
X2442463Y2121915D01*
X2463291Y2121915D01*
X2473706Y2116836D01*
X2479040Y2111502D01*
X2484120Y2101087D01*
X2484120Y2090673D01*
X2479040Y2080260D01*
X2468625Y2064765D01*
X2416556Y2012950D01*
X2489200Y2012950D01*
X4483608Y3135121D02*
G01*
X4494022Y3140455D01*
X4504436Y3150870D01*
X4509515Y3161029D01*
X4509515Y3181857D01*
X4504436Y3192271D01*
X4494022Y3202686D01*
X4483608Y3208020D01*
X4467859Y3213100D01*
X4441952Y3213100D01*
X4426458Y3208020D01*
X4416043Y3202686D01*
X4405629Y3192271D01*
X4400550Y3181857D01*
X4400550Y3161029D01*
X4405629Y3150870D01*
X4416043Y3140455D01*
X4426458Y3135121D01*
X4488688Y3100831D02*
G01*
X4494022Y3090418D01*
X4509515Y3074923D01*
X4400550Y3074923D01*
X4458208Y3541521D02*
G01*
X4468622Y3546855D01*
X4479036Y3557270D01*
X4484115Y3567429D01*
X4484115Y3588257D01*
X4479036Y3598671D01*
X4468622Y3609086D01*
X4458208Y3614420D01*
X4442459Y3619500D01*
X4416552Y3619500D01*
X4401058Y3614420D01*
X4390643Y3609086D01*
X4380229Y3598671D01*
X4375150Y3588257D01*
X4375150Y3567429D01*
X4380229Y3557270D01*
X4390643Y3546855D01*
X4401058Y3541521D01*
X4458208Y3502152D02*
G01*
X4463288Y3502152D01*
X4473702Y3496818D01*
X4479036Y3491737D01*
X4484115Y3481323D01*
X4484115Y3460495D01*
X4479036Y3450081D01*
X4473702Y3445002D01*
X4463288Y3439668D01*
X4452874Y3439668D01*
X4442459Y3445002D01*
X4426965Y3455415D01*
X4375150Y3507231D01*
X4375150Y3434587D01*
X5361177Y5499607D02*
G01*
X5355843Y5510021D01*
X5345429Y5520436D01*
X5335270Y5525515D01*
X5314441Y5525515D01*
X5304027Y5520436D01*
X5293613Y5510021D01*
X5288279Y5499607D01*
X5283200Y5483860D01*
X5283200Y5457952D01*
X5288279Y5442457D01*
X5293613Y5432044D01*
X5304027Y5421629D01*
X5314441Y5416550D01*
X5335270Y5416550D01*
X5345429Y5421629D01*
X5355843Y5432044D01*
X5361177Y5442457D01*
X5405881Y5525515D02*
G01*
X5463031Y5525515D01*
X5431790Y5483860D01*
X5447284Y5483860D01*
X5457697Y5478779D01*
X5463031Y5473700D01*
X5468111Y5457952D01*
X5468111Y5447537D01*
X5463031Y5432044D01*
X5452618Y5421629D01*
X5436870Y5416550D01*
X5421375Y5416550D01*
X5405881Y5421629D01*
X5400547Y5426710D01*
X5395468Y5437123D01*
X6108191Y3557778D02*
G01*
X6097777Y3552444D01*
X6087363Y3542029D01*
X6082284Y3531870D01*
X6082284Y3511042D01*
X6087363Y3500628D01*
X6097777Y3490213D01*
X6108191Y3484879D01*
X6123940Y3479800D01*
X6149847Y3479800D01*
X6165341Y3484879D01*
X6175756Y3490213D01*
X6186170Y3500628D01*
X6191250Y3511042D01*
X6191250Y3531870D01*
X6186170Y3542029D01*
X6175756Y3552444D01*
X6165341Y3557778D01*
X6082284Y3643884D02*
G01*
X6154927Y3592068D01*
X6154927Y3670045D01*
X6082284Y3643884D02*
G01*
X6191250Y3643884D01*
X5435091Y3557778D02*
G01*
X5424677Y3552444D01*
X5414263Y3542029D01*
X5409184Y3531870D01*
X5409184Y3511042D01*
X5414263Y3500628D01*
X5424677Y3490213D01*
X5435091Y3484879D01*
X5450840Y3479800D01*
X5476747Y3479800D01*
X5492241Y3484879D01*
X5502656Y3490213D01*
X5513070Y3500628D01*
X5518150Y3511042D01*
X5518150Y3531870D01*
X5513070Y3542029D01*
X5502656Y3552444D01*
X5492241Y3557778D01*
X5409184Y3654297D02*
G01*
X5409184Y3602481D01*
X5455920Y3597147D01*
X5450840Y3602481D01*
X5445506Y3617976D01*
X5445506Y3633470D01*
X5450840Y3649218D01*
X5461000Y3659631D01*
X5476747Y3664712D01*
X5487161Y3664712D01*
X5502656Y3659631D01*
X5513070Y3649218D01*
X5518150Y3633470D01*
X5518150Y3617976D01*
X5513070Y3602481D01*
X5507990Y3597147D01*
X5497575Y3592068D01*
X6451600Y5182615D02*
G01*
X6451600Y5073650D01*
X6451600Y5182615D02*
G01*
X6487922Y5182615D01*
X6503670Y5177536D01*
X6513829Y5167121D01*
X6519163Y5156707D01*
X6524243Y5140960D01*
X6524243Y5115052D01*
X6519163Y5099557D01*
X6513829Y5089144D01*
X6503670Y5078729D01*
X6487922Y5073650D01*
X6451600Y5073650D01*
X6558534Y5161787D02*
G01*
X6568947Y5167121D01*
X6584695Y5182615D01*
X6584695Y5073650D01*
X5104384Y4885944D02*
G01*
X5213350Y4813300D01*
X5104384Y4813300D02*
G01*
X5104384Y4885944D01*
X5213350Y4813300D02*
G01*
X5213350Y4885944D01*
X5104384Y4920234D02*
G01*
X5213350Y4920234D01*
X5104384Y4920234D02*
G01*
X5104384Y4956810D01*
X5109463Y4972304D01*
X5119877Y4982718D01*
X5130291Y4987797D01*
X5146040Y4993131D01*
X5171947Y4993131D01*
X5187441Y4987797D01*
X5197856Y4982718D01*
X5208270Y4972304D01*
X5213350Y4956810D01*
X5213350Y4920234D01*
X5125211Y5027421D02*
G01*
X5119877Y5037836D01*
X5104384Y5053329D01*
X5213350Y5053329D01*
X5817870Y3391915D02*
G01*
X5817870Y3308857D01*
X5812536Y3293110D01*
X5807456Y3288029D01*
X5797041Y3282950D01*
X5786627Y3282950D01*
X5776213Y3288029D01*
X5770879Y3293110D01*
X5765800Y3308857D01*
X5765800Y3319271D01*
X5852159Y3371087D02*
G01*
X5862320Y3376421D01*
X5878068Y3391915D01*
X5878068Y3282950D01*
X2769870Y2007615D02*
G01*
X2769870Y1924557D01*
X2764536Y1908810D01*
X2759456Y1903729D01*
X2749041Y1898650D01*
X2738627Y1898650D01*
X2728213Y1903729D01*
X2722879Y1908810D01*
X2717800Y1924557D01*
X2717800Y1934971D01*
X2809240Y1981707D02*
G01*
X2809240Y1986787D01*
X2814320Y1997202D01*
X2819654Y2002536D01*
X2830068Y2007615D01*
X2850895Y2007615D01*
X2861309Y2002536D01*
X2866390Y1997202D01*
X2871470Y1986787D01*
X2871470Y1976373D01*
X2866390Y1965960D01*
X2855975Y1950465D01*
X2804159Y1898650D01*
X2876804Y1898650D01*
X3886200Y5931915D02*
G01*
X3886200Y5822950D01*
X3886200Y5822950D02*
G01*
X3948429Y5822950D01*
X3982720Y5911087D02*
G01*
X3993134Y5916421D01*
X4008881Y5931915D01*
X4008881Y5822950D01*
X4622800Y4090415D02*
G01*
X4622800Y3981450D01*
X4622800Y3981450D02*
G01*
X4685029Y3981450D01*
X4719320Y4090415D02*
G01*
X4719320Y3981450D01*
X4719320Y4090415D02*
G01*
X4786884Y4090415D01*
X4719320Y4038600D02*
G01*
X4760975Y4038600D01*
X4719320Y3981450D02*
G01*
X4786884Y3981450D01*
X4821174Y4090415D02*
G01*
X4821174Y3981450D01*
X4821174Y4090415D02*
G01*
X4857750Y4090415D01*
X4873243Y4085336D01*
X4883658Y4074921D01*
X4888738Y4064507D01*
X4894072Y4048760D01*
X4894072Y4022852D01*
X4888738Y4007357D01*
X4883658Y3996944D01*
X4873243Y3986529D01*
X4857750Y3981450D01*
X4821174Y3981450D01*
X4928361Y4069587D02*
G01*
X4938775Y4074921D01*
X4954270Y4090415D01*
X4954270Y3981450D01*
X5149341Y2629915D02*
G01*
X5138927Y2624836D01*
X5128513Y2614421D01*
X5123179Y2604007D01*
X5118100Y2588260D01*
X5118100Y2562352D01*
X5123179Y2546857D01*
X5128513Y2536444D01*
X5138927Y2526029D01*
X5149341Y2520950D01*
X5170170Y2520950D01*
X5180329Y2526029D01*
X5190743Y2536444D01*
X5196077Y2546857D01*
X5201158Y2562352D01*
X5201158Y2588260D01*
X5196077Y2604007D01*
X5190743Y2614421D01*
X5180329Y2624836D01*
X5170170Y2629915D01*
X5149341Y2629915D01*
X5235447Y2629915D02*
G01*
X5235447Y2520950D01*
X5235447Y2629915D02*
G01*
X5282184Y2629915D01*
X5297931Y2624836D01*
X5303011Y2619502D01*
X5308345Y2609087D01*
X5308345Y2593594D01*
X5303011Y2583179D01*
X5297931Y2578100D01*
X5282184Y2572765D01*
X5235447Y2572765D01*
X5342636Y2609087D02*
G01*
X5353050Y2614421D01*
X5368543Y2629915D01*
X5368543Y2520950D01*
X5047741Y2083815D02*
G01*
X5037327Y2078736D01*
X5026913Y2068321D01*
X5021579Y2057907D01*
X5016500Y2042160D01*
X5016500Y2016252D01*
X5021579Y2000757D01*
X5026913Y1990344D01*
X5037327Y1979929D01*
X5047741Y1974850D01*
X5068570Y1974850D01*
X5078729Y1979929D01*
X5089143Y1990344D01*
X5094477Y2000757D01*
X5099558Y2016252D01*
X5099558Y2042160D01*
X5094477Y2057907D01*
X5089143Y2068321D01*
X5078729Y2078736D01*
X5068570Y2083815D01*
X5047741Y2083815D01*
X5133847Y2083815D02*
G01*
X5133847Y1974850D01*
X5133847Y2083815D02*
G01*
X5180584Y2083815D01*
X5196331Y2078736D01*
X5201411Y2073402D01*
X5206745Y2062987D01*
X5206745Y2047494D01*
X5201411Y2037079D01*
X5196331Y2032000D01*
X5180584Y2026665D01*
X5133847Y2026665D01*
X5246115Y2057907D02*
G01*
X5246115Y2062987D01*
X5251450Y2073402D01*
X5256529Y2078736D01*
X5266943Y2083815D01*
X5287772Y2083815D01*
X5298186Y2078736D01*
X5303265Y2073402D01*
X5308600Y2062987D01*
X5308600Y2052573D01*
X5303265Y2042160D01*
X5292852Y2026665D01*
X5241036Y1974850D01*
X5313679Y1974850D01*
X6032500Y5804915D02*
G01*
X6032500Y5695950D01*
X6032500Y5804915D02*
G01*
X6079236Y5804915D01*
X6094729Y5799836D01*
X6100063Y5794502D01*
X6105143Y5784087D01*
X6105143Y5768594D01*
X6100063Y5758179D01*
X6094729Y5753100D01*
X6079236Y5747765D01*
X6032500Y5747765D01*
X6139434Y5784087D02*
G01*
X6149847Y5789421D01*
X6165595Y5804915D01*
X6165595Y5695950D01*
X5929884Y4025900D02*
G01*
X6038850Y4025900D01*
X5929884Y4025900D02*
G01*
X5929884Y4072636D01*
X5934963Y4088129D01*
X5940297Y4093463D01*
X5950711Y4098544D01*
X5966206Y4098544D01*
X5976620Y4093463D01*
X5981700Y4088129D01*
X5987034Y4072636D01*
X5987034Y4025900D01*
X5955791Y4210812D02*
G01*
X5945377Y4205731D01*
X5934963Y4195318D01*
X5929884Y4184904D01*
X5929884Y4164076D01*
X5934963Y4153662D01*
X5945377Y4143247D01*
X5955791Y4138168D01*
X5971540Y4132834D01*
X5997447Y4132834D01*
X6012941Y4138168D01*
X6023356Y4143247D01*
X6033770Y4153662D01*
X6038850Y4164076D01*
X6038850Y4184904D01*
X6033770Y4195318D01*
X6023356Y4205731D01*
X6012941Y4210812D01*
X5950711Y4245102D02*
G01*
X5945377Y4255515D01*
X5929884Y4271010D01*
X6038850Y4271010D01*
X4650699Y5378655D02*
G01*
X4650699Y5269689D01*
X4650699Y5378655D02*
G01*
X4697435Y5378655D01*
X4712929Y5373575D01*
X4718263Y5368241D01*
X4723343Y5357827D01*
X4723343Y5342333D01*
X4718263Y5331919D01*
X4712929Y5326839D01*
X4697435Y5321505D01*
X4650699Y5321505D01*
X4835611Y5352747D02*
G01*
X4830531Y5363161D01*
X4820117Y5373575D01*
X4809703Y5378655D01*
X4788875Y5378655D01*
X4778461Y5373575D01*
X4768047Y5363161D01*
X4762967Y5352747D01*
X4757633Y5336999D01*
X4757633Y5311091D01*
X4762967Y5295597D01*
X4768047Y5285183D01*
X4778461Y5274769D01*
X4788875Y5269689D01*
X4809703Y5269689D01*
X4820117Y5274769D01*
X4830531Y5285183D01*
X4835611Y5295597D01*
X4875235Y5352747D02*
G01*
X4875235Y5357827D01*
X4880315Y5368241D01*
X4885649Y5373575D01*
X4895809Y5378655D01*
X4916637Y5378655D01*
X4927051Y5373575D01*
X4932385Y5368241D01*
X4937465Y5357827D01*
X4937465Y5347413D01*
X4932385Y5336999D01*
X4921971Y5321505D01*
X4869901Y5269689D01*
X4942799Y5269689D01*
X3914406Y3582644D02*
G01*
X3903992Y3577564D01*
X3893578Y3567150D01*
X3888244Y3556736D01*
X3883164Y3540988D01*
X3883164Y3515080D01*
X3888244Y3499586D01*
X3893578Y3489172D01*
X3903992Y3478758D01*
X3914406Y3473678D01*
X3935234Y3473678D01*
X3945394Y3478758D01*
X3955808Y3489172D01*
X3961142Y3499586D01*
X3966222Y3515080D01*
X3966222Y3540988D01*
X3961142Y3556736D01*
X3955808Y3567150D01*
X3945394Y3577564D01*
X3935234Y3582644D01*
X3914406Y3582644D01*
X3929900Y3494252D02*
G01*
X3961142Y3463264D01*
X4000512Y3561816D02*
G01*
X4010926Y3567150D01*
X4026674Y3582644D01*
X4026674Y3473678D01*
X3863606Y5284444D02*
G01*
X3853192Y5279364D01*
X3842778Y5268950D01*
X3837444Y5258536D01*
X3832364Y5242788D01*
X3832364Y5216880D01*
X3837444Y5201386D01*
X3842778Y5190972D01*
X3853192Y5180558D01*
X3863606Y5175478D01*
X3884434Y5175478D01*
X3894594Y5180558D01*
X3905008Y5190972D01*
X3910342Y5201386D01*
X3915422Y5216880D01*
X3915422Y5242788D01*
X3910342Y5258536D01*
X3905008Y5268950D01*
X3894594Y5279364D01*
X3884434Y5284444D01*
X3863606Y5284444D01*
X3879100Y5196052D02*
G01*
X3910342Y5165064D01*
X3955046Y5258536D02*
G01*
X3955046Y5263616D01*
X3960126Y5274030D01*
X3965460Y5279364D01*
X3975874Y5284444D01*
X3996448Y5284444D01*
X4006862Y5279364D01*
X4012196Y5274030D01*
X4017276Y5263616D01*
X4017276Y5253202D01*
X4012196Y5242788D01*
X4001782Y5227294D01*
X3949712Y5175478D01*
X4022610Y5175478D01*
X5956300Y2934715D02*
G01*
X5956300Y2825750D01*
X5956300Y2934715D02*
G01*
X6003036Y2934715D01*
X6018529Y2929636D01*
X6023863Y2924302D01*
X6028943Y2913887D01*
X6028943Y2903473D01*
X6023863Y2893060D01*
X6018529Y2887979D01*
X6003036Y2882900D01*
X5956300Y2882900D01*
X5992622Y2882900D02*
G01*
X6028943Y2825750D01*
X6063234Y2913887D02*
G01*
X6073647Y2919221D01*
X6089395Y2934715D01*
X6089395Y2825750D01*
X6184900Y2934715D02*
G01*
X6184900Y2825750D01*
X6184900Y2934715D02*
G01*
X6231636Y2934715D01*
X6247129Y2929636D01*
X6252463Y2924302D01*
X6257543Y2913887D01*
X6257543Y2903473D01*
X6252463Y2893060D01*
X6247129Y2887979D01*
X6231636Y2882900D01*
X6184900Y2882900D01*
X6221222Y2882900D02*
G01*
X6257543Y2825750D01*
X6297168Y2908807D02*
G01*
X6297168Y2913887D01*
X6302247Y2924302D01*
X6307581Y2929636D01*
X6317995Y2934715D01*
X6338570Y2934715D01*
X6348984Y2929636D01*
X6354318Y2924302D01*
X6359397Y2913887D01*
X6359397Y2903473D01*
X6354318Y2893060D01*
X6343904Y2877565D01*
X6291834Y2825750D01*
X6364731Y2825750D01*
X4394200Y2909315D02*
G01*
X4394200Y2800350D01*
X4394200Y2909315D02*
G01*
X4440936Y2909315D01*
X4456429Y2904236D01*
X4461763Y2898902D01*
X4466843Y2888487D01*
X4466843Y2878073D01*
X4461763Y2867660D01*
X4456429Y2862579D01*
X4440936Y2857500D01*
X4394200Y2857500D01*
X4430522Y2857500D02*
G01*
X4466843Y2800350D01*
X4511547Y2909315D02*
G01*
X4568697Y2909315D01*
X4537709Y2867660D01*
X4553204Y2867660D01*
X4563618Y2862579D01*
X4568697Y2857500D01*
X4574031Y2841752D01*
X4574031Y2831337D01*
X4568697Y2815844D01*
X4558284Y2805429D01*
X4542790Y2800350D01*
X4527295Y2800350D01*
X4511547Y2805429D01*
X4506468Y2810510D01*
X4501134Y2820923D01*
X3987800Y2896615D02*
G01*
X3987800Y2787650D01*
X3987800Y2896615D02*
G01*
X4034536Y2896615D01*
X4050029Y2891536D01*
X4055363Y2886202D01*
X4060443Y2875787D01*
X4060443Y2865373D01*
X4055363Y2854960D01*
X4050029Y2849879D01*
X4034536Y2844800D01*
X3987800Y2844800D01*
X4024122Y2844800D02*
G01*
X4060443Y2787650D01*
X4146804Y2896615D02*
G01*
X4094734Y2823971D01*
X4172711Y2823971D01*
X4146804Y2896615D02*
G01*
X4146804Y2787650D01*
X6425184Y1930400D02*
G01*
X6534150Y1930400D01*
X6425184Y1930400D02*
G01*
X6425184Y1977136D01*
X6430263Y1992629D01*
X6435597Y1997963D01*
X6446011Y2003044D01*
X6456425Y2003044D01*
X6466840Y1997963D01*
X6471920Y1992629D01*
X6477000Y1977136D01*
X6477000Y1930400D01*
X6477000Y1966721D02*
G01*
X6534150Y2003044D01*
X6425184Y2099818D02*
G01*
X6425184Y2047747D01*
X6471920Y2042668D01*
X6466840Y2047747D01*
X6461506Y2063495D01*
X6461506Y2078989D01*
X6466840Y2094484D01*
X6477000Y2104897D01*
X6492747Y2110231D01*
X6503161Y2110231D01*
X6518656Y2104897D01*
X6529070Y2094484D01*
X6534150Y2078989D01*
X6534150Y2063495D01*
X6529070Y2047747D01*
X6523990Y2042668D01*
X6513575Y2037334D01*
X5969000Y1842515D02*
G01*
X5969000Y1733550D01*
X5969000Y1842515D02*
G01*
X6015736Y1842515D01*
X6031229Y1837436D01*
X6036563Y1832102D01*
X6041643Y1821687D01*
X6041643Y1811273D01*
X6036563Y1800860D01*
X6031229Y1795779D01*
X6015736Y1790700D01*
X5969000Y1790700D01*
X6005322Y1790700D02*
G01*
X6041643Y1733550D01*
X6138418Y1827021D02*
G01*
X6133084Y1837436D01*
X6117590Y1842515D01*
X6107175Y1842515D01*
X6091681Y1837436D01*
X6081268Y1821687D01*
X6075934Y1795779D01*
X6075934Y1769871D01*
X6081268Y1749044D01*
X6091681Y1738629D01*
X6107175Y1733550D01*
X6112509Y1733550D01*
X6128004Y1738629D01*
X6138418Y1749044D01*
X6143497Y1764537D01*
X6143497Y1769871D01*
X6138418Y1785365D01*
X6128004Y1795779D01*
X6112509Y1800860D01*
X6107175Y1800860D01*
X6091681Y1795779D01*
X6081268Y1785365D01*
X6075934Y1769871D01*
X4330700Y2363215D02*
G01*
X4330700Y2254250D01*
X4330700Y2363215D02*
G01*
X4377436Y2363215D01*
X4392929Y2358136D01*
X4398263Y2352802D01*
X4403343Y2342387D01*
X4403343Y2331973D01*
X4398263Y2321560D01*
X4392929Y2316479D01*
X4377436Y2311400D01*
X4330700Y2311400D01*
X4367022Y2311400D02*
G01*
X4403343Y2254250D01*
X4510531Y2363215D02*
G01*
X4458461Y2254250D01*
X4437634Y2363215D02*
G01*
X4510531Y2363215D01*
X4024884Y1943100D02*
G01*
X4133850Y1943100D01*
X4024884Y1943100D02*
G01*
X4024884Y1989836D01*
X4029963Y2005329D01*
X4035297Y2010663D01*
X4045711Y2015744D01*
X4056125Y2015744D01*
X4066540Y2010663D01*
X4071620Y2005329D01*
X4076700Y1989836D01*
X4076700Y1943100D01*
X4076700Y1979421D02*
G01*
X4133850Y2015744D01*
X4024884Y2076195D02*
G01*
X4029963Y2060447D01*
X4040377Y2055368D01*
X4050791Y2055368D01*
X4061206Y2060447D01*
X4066540Y2070862D01*
X4071620Y2091689D01*
X4076700Y2107184D01*
X4087113Y2117597D01*
X4097527Y2122931D01*
X4113275Y2122931D01*
X4123690Y2117597D01*
X4128770Y2112518D01*
X4133850Y2096770D01*
X4133850Y2076195D01*
X4128770Y2060447D01*
X4123690Y2055368D01*
X4113275Y2050034D01*
X4097527Y2050034D01*
X4087113Y2055368D01*
X4076700Y2065781D01*
X4071620Y2081276D01*
X4066540Y2102104D01*
X4061206Y2112518D01*
X4050791Y2117597D01*
X4040377Y2117597D01*
X4029963Y2112518D01*
X4024884Y2096770D01*
X4024884Y2076195D01*
X7023100Y5690615D02*
G01*
X7023100Y5581650D01*
X7023100Y5690615D02*
G01*
X7069836Y5690615D01*
X7085329Y5685536D01*
X7090663Y5680202D01*
X7095743Y5669787D01*
X7095743Y5659373D01*
X7090663Y5648960D01*
X7085329Y5643879D01*
X7069836Y5638800D01*
X7023100Y5638800D01*
X7059422Y5638800D02*
G01*
X7095743Y5581650D01*
X7197597Y5654294D02*
G01*
X7192518Y5638800D01*
X7182104Y5628386D01*
X7166609Y5623052D01*
X7161275Y5623052D01*
X7145781Y5628386D01*
X7135368Y5638800D01*
X7130034Y5654294D01*
X7130034Y5659373D01*
X7135368Y5675121D01*
X7145781Y5685536D01*
X7161275Y5690615D01*
X7166609Y5690615D01*
X7182104Y5685536D01*
X7192518Y5675121D01*
X7197597Y5654294D01*
X7197597Y5628386D01*
X7192518Y5602223D01*
X7182104Y5586729D01*
X7166609Y5581650D01*
X7156195Y5581650D01*
X7140447Y5586729D01*
X7135368Y5597144D01*
X6768084Y5600700D02*
G01*
X6877050Y5600700D01*
X6768084Y5600700D02*
G01*
X6768084Y5647436D01*
X6773163Y5662929D01*
X6778497Y5668263D01*
X6788911Y5673344D01*
X6799325Y5673344D01*
X6809740Y5668263D01*
X6814820Y5662929D01*
X6819900Y5647436D01*
X6819900Y5600700D01*
X6819900Y5637021D02*
G01*
X6877050Y5673344D01*
X6788911Y5707634D02*
G01*
X6783577Y5718047D01*
X6768084Y5733795D01*
X6877050Y5733795D01*
X6768084Y5799073D02*
G01*
X6773163Y5783579D01*
X6788911Y5773165D01*
X6814820Y5768086D01*
X6830313Y5768086D01*
X6856475Y5773165D01*
X6871970Y5783579D01*
X6877050Y5799073D01*
X6877050Y5809487D01*
X6871970Y5825236D01*
X6856475Y5835650D01*
X6830313Y5840729D01*
X6814820Y5840729D01*
X6788911Y5835650D01*
X6773163Y5825236D01*
X6768084Y5809487D01*
X6768084Y5799073D01*
X6514084Y5638800D02*
G01*
X6623050Y5638800D01*
X6514084Y5638800D02*
G01*
X6514084Y5685536D01*
X6519163Y5701029D01*
X6524497Y5706363D01*
X6534911Y5711444D01*
X6545325Y5711444D01*
X6555740Y5706363D01*
X6560820Y5701029D01*
X6565900Y5685536D01*
X6565900Y5638800D01*
X6565900Y5675121D02*
G01*
X6623050Y5711444D01*
X6534911Y5745734D02*
G01*
X6529577Y5756147D01*
X6514084Y5771895D01*
X6623050Y5771895D01*
X6534911Y5806186D02*
G01*
X6529577Y5816600D01*
X6514084Y5832094D01*
X6623050Y5832094D01*
X5917184Y4419600D02*
G01*
X6026150Y4419600D01*
X5917184Y4419600D02*
G01*
X5917184Y4466336D01*
X5922263Y4481829D01*
X5927597Y4487163D01*
X5938011Y4492244D01*
X5948425Y4492244D01*
X5958840Y4487163D01*
X5963920Y4481829D01*
X5969000Y4466336D01*
X5969000Y4419600D01*
X5969000Y4455921D02*
G01*
X6026150Y4492244D01*
X5938011Y4526534D02*
G01*
X5932677Y4536947D01*
X5917184Y4552695D01*
X6026150Y4552695D01*
X5943091Y4592065D02*
G01*
X5938011Y4592065D01*
X5927597Y4597400D01*
X5922263Y4602479D01*
X5917184Y4612894D01*
X5917184Y4633721D01*
X5922263Y4644136D01*
X5927597Y4649215D01*
X5938011Y4654550D01*
X5948425Y4654550D01*
X5958840Y4649215D01*
X5974334Y4638802D01*
X6026150Y4586986D01*
X6026150Y4659629D01*
X6172200Y4776215D02*
G01*
X6172200Y4667250D01*
X6172200Y4776215D02*
G01*
X6218936Y4776215D01*
X6234429Y4771136D01*
X6239763Y4765802D01*
X6244843Y4755387D01*
X6244843Y4744973D01*
X6239763Y4734560D01*
X6234429Y4729479D01*
X6218936Y4724400D01*
X6172200Y4724400D01*
X6208522Y4724400D02*
G01*
X6244843Y4667250D01*
X6279134Y4755387D02*
G01*
X6289547Y4760721D01*
X6305295Y4776215D01*
X6305295Y4667250D01*
X6350000Y4776215D02*
G01*
X6407150Y4776215D01*
X6375908Y4734560D01*
X6391402Y4734560D01*
X6401815Y4729479D01*
X6407150Y4724400D01*
X6412229Y4708652D01*
X6412229Y4698237D01*
X6407150Y4682744D01*
X6396736Y4672329D01*
X6380988Y4667250D01*
X6365493Y4667250D01*
X6350000Y4672329D01*
X6344665Y4677410D01*
X6339586Y4687823D01*
X4216400Y4446015D02*
G01*
X4216400Y4337050D01*
X4216400Y4446015D02*
G01*
X4263136Y4446015D01*
X4278629Y4440936D01*
X4283963Y4435602D01*
X4289043Y4425187D01*
X4289043Y4414773D01*
X4283963Y4404360D01*
X4278629Y4399279D01*
X4263136Y4394200D01*
X4216400Y4394200D01*
X4252722Y4394200D02*
G01*
X4289043Y4337050D01*
X4323334Y4425187D02*
G01*
X4333747Y4430521D01*
X4349495Y4446015D01*
X4349495Y4337050D01*
X4409693Y4446015D02*
G01*
X4394200Y4440936D01*
X4388865Y4430521D01*
X4388865Y4420107D01*
X4394200Y4409694D01*
X4404359Y4404360D01*
X4425188Y4399279D01*
X4440936Y4394200D01*
X4451350Y4383786D01*
X4456429Y4373371D01*
X4456429Y4357623D01*
X4451350Y4347210D01*
X4446015Y4342129D01*
X4430522Y4337050D01*
X4409693Y4337050D01*
X4394200Y4342129D01*
X4388865Y4347210D01*
X4383786Y4357623D01*
X4383786Y4373371D01*
X4388865Y4383786D01*
X4399279Y4394200D01*
X4414774Y4399279D01*
X4435602Y4404360D01*
X4446015Y4409694D01*
X4451350Y4420107D01*
X4451350Y4430521D01*
X4446015Y4440936D01*
X4430522Y4446015D01*
X4409693Y4446015D01*
X6348984Y3427221D02*
G01*
X6457950Y3427221D01*
X6348984Y3390900D02*
G01*
X6348984Y3463544D01*
X6374891Y3503168D02*
G01*
X6369811Y3503168D01*
X6359397Y3508247D01*
X6354063Y3513581D01*
X6348984Y3523995D01*
X6348984Y3544570D01*
X6354063Y3554984D01*
X6359397Y3560318D01*
X6369811Y3565397D01*
X6380225Y3565397D01*
X6390640Y3560318D01*
X6406134Y3549904D01*
X6457950Y3497834D01*
X6457950Y3570731D01*
X6336284Y3973321D02*
G01*
X6445250Y3973321D01*
X6336284Y3937000D02*
G01*
X6336284Y4009644D01*
X6357111Y4043934D02*
G01*
X6351777Y4054347D01*
X6336284Y4070095D01*
X6445250Y4070095D01*
X1334515Y5094478D02*
G01*
X1225550Y5094478D01*
X1334515Y5130800D02*
G01*
X1334515Y5058155D01*
X1334515Y5013452D02*
G01*
X1334515Y4956302D01*
X1292860Y4987289D01*
X1292860Y4971795D01*
X1287779Y4961381D01*
X1282700Y4956302D01*
X1266952Y4950968D01*
X1256537Y4950968D01*
X1241044Y4956302D01*
X1230629Y4966715D01*
X1225550Y4982210D01*
X1225550Y4997704D01*
X1230629Y5013452D01*
X1235710Y5018531D01*
X1246123Y5023865D01*
X1194815Y2605278D02*
G01*
X1085850Y2605278D01*
X1194815Y2641600D02*
G01*
X1194815Y2568955D01*
X1194815Y2482595D02*
G01*
X1122171Y2534665D01*
X1122171Y2456687D01*
X1194815Y2482595D02*
G01*
X1085850Y2482595D01*
X4787900Y3861815D02*
G01*
X4787900Y3783837D01*
X4792979Y3768344D01*
X4803393Y3757929D01*
X4819141Y3752850D01*
X4829556Y3752850D01*
X4845050Y3757929D01*
X4855463Y3768344D01*
X4860543Y3783837D01*
X4860543Y3861815D01*
X4894834Y3840987D02*
G01*
X4905247Y3846321D01*
X4920995Y3861815D01*
X4920995Y3752850D01*
G36*
X3985564Y4107687D02*
G01*
X3985564Y4061968D01*
X4033316Y4061968D01*
X4033316Y4107687D01*
G37*
G36*
X3717493Y4113123D02*
G01*
X3717493Y4067403D01*
X3765245Y4067403D01*
X3765245Y4113123D01*
G37*
G36*
X3985564Y2380488D02*
G01*
X3985564Y2334768D01*
X4033316Y2334768D01*
X4033316Y2380488D01*
G37*
G36*
X3717493Y2385923D02*
G01*
X3717493Y2340203D01*
X3765245Y2340203D01*
X3765245Y2385923D01*
G37*
G36*
X6645503Y5096306D02*
G01*
X6645503Y5048554D01*
X6691223Y5048554D01*
X6691223Y5096306D01*
G37*
G36*
X6640068Y4828235D02*
G01*
X6640068Y4780483D01*
X6685788Y4780483D01*
X6685788Y4828235D01*
G37*
G36*
X5792876Y4793945D02*
G01*
X5792876Y4746193D01*
X5838596Y4746193D01*
X5838596Y4793945D01*
G37*
G36*
X5798312Y5062016D02*
G01*
X5798312Y5014264D01*
X5844032Y5014264D01*
X5844032Y5062016D01*
G37*
G36*
X4776876Y4252417D02*
G01*
X4775911Y4180433D01*
X4801870Y4216400D01*
G37*
G36*
X5186426Y3992219D02*
G01*
X5200396Y3979468D01*
X5214874Y3967327D01*
X5229910Y3955846D01*
X5245455Y3945026D01*
X5261406Y3934917D01*
X5277815Y3925468D01*
X5294630Y3916781D01*
X5311749Y3908806D01*
X5329224Y3901592D01*
X5347004Y3895140D01*
X5365089Y3889451D01*
X5383326Y3884574D01*
X5401818Y3880510D01*
X5420461Y3877208D01*
X5439206Y3874770D01*
X5458053Y3873144D01*
X5476951Y3872280D01*
X5495848Y3872280D01*
X5514746Y3873144D01*
X5533593Y3874770D01*
X5552338Y3877208D01*
X5570982Y3880510D01*
X5589473Y3884574D01*
X5607710Y3889451D01*
X5625795Y3895140D01*
X5643575Y3901592D01*
X5661050Y3908806D01*
X5678170Y3916781D01*
X5694984Y3925468D01*
X5711393Y3934917D01*
X5727344Y3945026D01*
X5742889Y3955846D01*
X5757926Y3967327D01*
X5772404Y3979468D01*
X5786374Y3992219D01*
G37*
G36*
X4948580Y5113324D02*
G01*
X4948580Y4513275D01*
X4961331Y4527296D01*
X4973472Y4541774D01*
X4984953Y4556810D01*
X4995773Y4572355D01*
X5005882Y4588306D01*
X5015331Y4604715D01*
X5024018Y4621530D01*
X5031994Y4638649D01*
X5039207Y4656124D01*
X5045659Y4673904D01*
X5051348Y4691989D01*
X5056225Y4710226D01*
X5060289Y4728718D01*
X5063591Y4747361D01*
X5066030Y4766106D01*
X5067655Y4784953D01*
X5068519Y4803851D01*
X5068519Y4822748D01*
X5067655Y4841646D01*
X5066030Y4860493D01*
X5063591Y4879238D01*
X5060289Y4897882D01*
X5056225Y4916373D01*
X5051348Y4934610D01*
X5045659Y4952695D01*
X5039207Y4970475D01*
X5031994Y4987950D01*
X5024018Y5005070D01*
X5015331Y5021884D01*
X5005882Y5038293D01*
X4995773Y5054244D01*
X4984953Y5069789D01*
X4973472Y5084826D01*
X4961331Y5099304D01*
G37*
X3720477Y4245160D02*
G01*
X4024708Y4245160D01*
X4025709Y4100050D02*
G01*
X4029712Y4595426D01*
X4029712Y4596427D02*
G01*
X3994663Y4596427D01*
X3717475Y4595426D02*
G01*
X3752524Y4595426D01*
X3717475Y4075031D02*
G01*
X3717475Y4593424D01*
X3720477Y2517960D02*
G01*
X4024708Y2517960D01*
X4025709Y2372850D02*
G01*
X4029712Y2868226D01*
X4029712Y2869227D02*
G01*
X3994663Y2869227D01*
X3717475Y2868226D02*
G01*
X3752524Y2868226D01*
X3717475Y2347831D02*
G01*
X3717475Y2866224D01*
X4244609Y4657719D02*
G01*
X4244609Y4786213D01*
X4061190Y4786213D01*
X4061190Y4657719D01*
X4244609Y4562480D02*
G01*
X4244609Y4433986D01*
X4061190Y4433986D01*
X4061190Y4562480D01*
X4061190Y4918080D02*
G01*
X4061190Y4789586D01*
X4244609Y4789586D01*
X4244609Y4918080D01*
X4061190Y5013319D02*
G01*
X4061190Y5141813D01*
X4244609Y5141813D01*
X4244609Y5013319D01*
X4181480Y3990609D02*
G01*
X4052986Y3990609D01*
X4052986Y3807190D01*
X4181480Y3807190D01*
X4276719Y3990609D02*
G01*
X4405213Y3990609D01*
X4405213Y3807190D01*
X4276719Y3807190D01*
X4041409Y3844919D02*
G01*
X4041409Y3973413D01*
X3857990Y3973413D01*
X3857990Y3844919D01*
X4041409Y3749680D02*
G01*
X4041409Y3621186D01*
X3857990Y3621186D01*
X3857990Y3749680D01*
D12*
X2909026Y4632015D02*
G01*
X2909026Y4137101D01*
X2909026Y5337098D02*
G01*
X2909026Y4842225D01*
X2909026Y5337096D02*
G01*
X3010814Y5337098D01*
X2909026Y4137103D02*
G01*
X3010814Y4137101D01*
X1962988Y5162804D02*
G01*
X1962988Y4768342D01*
X2064816Y4666995D02*
G01*
X1899767Y4506213D01*
X3383000Y4557100D02*
G01*
X3383000Y4364380D01*
X2519400Y4364380D01*
X2519400Y4664379D01*
X2516987Y4666795D01*
X2115388Y4666795D01*
X2064588Y4666795D01*
D13*
X1629717Y5517098D02*
G01*
X3549728Y5517098D01*
X1629730Y3957096D02*
G01*
X3549741Y3957096D01*
X1629727Y5517100D02*
G01*
X1629727Y3957099D01*
X1969897Y4312412D02*
G01*
X1969897Y4535170D01*
X3549741Y3957096D02*
G01*
X3549741Y4707630D01*
X3549741Y4766569D02*
G01*
X3549741Y5517098D01*
X3057321Y4637100D02*
G01*
X2757322Y4637100D01*
X2757322Y4837099D01*
X3057321Y4837099D01*
X3057321Y4637100D01*
D12*
X2909026Y2942915D02*
G01*
X2909026Y2448001D01*
X2909026Y3647998D02*
G01*
X2909026Y3153125D01*
X2909026Y3647996D02*
G01*
X3010814Y3647998D01*
X2909026Y2448003D02*
G01*
X3010814Y2448001D01*
X1962988Y3473704D02*
G01*
X1962988Y3079242D01*
X2064816Y2977895D02*
G01*
X1899767Y2817113D01*
X3383000Y2868000D02*
G01*
X3383000Y2675280D01*
X2519400Y2675280D01*
X2519400Y2975279D01*
X2516987Y2977695D01*
X2115388Y2977695D01*
X2064588Y2977695D01*
D13*
X1629717Y3827998D02*
G01*
X3549728Y3827998D01*
X1629730Y2267996D02*
G01*
X3549741Y2267996D01*
X1629727Y3828000D02*
G01*
X1629727Y2267999D01*
X1969897Y2623312D02*
G01*
X1969897Y2846070D01*
X3549741Y2267996D02*
G01*
X3549741Y3018530D01*
X3549741Y3077469D02*
G01*
X3549741Y3827998D01*
X3057321Y2948000D02*
G01*
X2757322Y2948000D01*
X2757322Y3147999D01*
X3057321Y3147999D01*
X3057321Y2948000D01*
D11*
X4332160Y2955780D02*
G01*
X4332160Y3096780D01*
X4151439Y3096780D02*
G01*
X4151439Y2955780D01*
X4166679Y2940540D02*
G01*
X4316920Y2940540D01*
X4332160Y3318019D02*
G01*
X4332160Y3177019D01*
X4151439Y3177019D02*
G01*
X4151439Y3318019D01*
X4166679Y3333259D02*
G01*
X4316920Y3333259D01*
X4332160Y3387580D02*
G01*
X4332160Y3528580D01*
X4151439Y3528580D02*
G01*
X4151439Y3387580D01*
X4166679Y3372340D02*
G01*
X4316920Y3372340D01*
X4332160Y3749819D02*
G01*
X4332160Y3608819D01*
X4151439Y3608819D02*
G01*
X4151439Y3749819D01*
X4166679Y3765059D02*
G01*
X4316920Y3765059D01*
X5604019Y5373560D02*
G01*
X5463019Y5373560D01*
X5463019Y5192839D02*
G01*
X5604019Y5192839D01*
X5619259Y5208079D02*
G01*
X5619259Y5358320D01*
X5241780Y5373560D02*
G01*
X5382780Y5373560D01*
X5382780Y5192839D02*
G01*
X5241780Y5192839D01*
X5226540Y5208079D02*
G01*
X5226540Y5358320D01*
X5853239Y3787919D02*
G01*
X5853239Y3646919D01*
X6033960Y3646919D02*
G01*
X6033960Y3787919D01*
X6018720Y3803159D02*
G01*
X5868479Y3803159D01*
X5853239Y3425680D02*
G01*
X5853239Y3566680D01*
X6033960Y3566680D02*
G01*
X6033960Y3425680D01*
X6018720Y3410440D02*
G01*
X5868479Y3410440D01*
X5573839Y3787919D02*
G01*
X5573839Y3646919D01*
X5754560Y3646919D02*
G01*
X5754560Y3787919D01*
X5739320Y3803159D02*
G01*
X5589079Y3803159D01*
X5573839Y3425680D02*
G01*
X5573839Y3566680D01*
X5754560Y3566680D02*
G01*
X5754560Y3425680D01*
X5739320Y3410440D02*
G01*
X5589079Y3410440D01*
X6823260Y5093322D02*
G01*
X6823260Y4789091D01*
X6678150Y4788090D02*
G01*
X7173526Y4784087D01*
X7174527Y4784087D02*
G01*
X7174527Y4819136D01*
X7173526Y5096324D02*
G01*
X7173526Y5061275D01*
X6653131Y5096324D02*
G01*
X7171524Y5096324D01*
X5660839Y4749177D02*
G01*
X5660839Y5053408D01*
X5805949Y5054409D02*
G01*
X5310573Y5058412D01*
X5309572Y5058412D02*
G01*
X5309572Y5023363D01*
X5310573Y4746175D02*
G01*
X5310573Y4781224D01*
X5830968Y4746175D02*
G01*
X5312575Y4746175D01*
D10*
X6375400Y3263900D02*
G01*
X6375400Y3009900D01*
X5359400Y3009900D01*
X5359400Y3263900D01*
X5549900Y3263900D01*
D14*
X6375400Y3263900D02*
G01*
X5549900Y3263900D01*
D10*
X2933700Y1828800D02*
G01*
X2933700Y2082800D01*
X3949700Y2082800D01*
X3949700Y1828800D01*
X3759200Y1828800D01*
D14*
X2933700Y1828800D02*
G01*
X3759200Y1828800D01*
D13*
X4160900Y5926899D02*
G01*
X5160899Y5926899D01*
X5160899Y5426900D01*
X4160900Y5426900D01*
X4160900Y5426900D02*
G01*
X4160900Y5926899D01*
D15*
X4824900Y4289399D02*
G01*
X4939898Y4289399D01*
X4939898Y4144401D01*
X4819898Y4144401D01*
X4757900Y4143400D02*
G01*
X4633899Y4143400D01*
X4633899Y4288398D01*
X4757900Y4288398D01*
X4939898Y4289399D02*
G01*
X4942900Y4289399D01*
X4962900Y4269399D01*
X4962900Y4167400D01*
X4959898Y4164401D01*
X4939898Y4144401D01*
D13*
X5549902Y2346716D02*
G01*
X4899913Y2346716D01*
X4899913Y2806707D02*
G01*
X5549902Y2806707D01*
X4899913Y2346716D02*
G01*
X4899913Y2806707D01*
X5549902Y2806707D02*
G01*
X5549902Y2346716D01*
X5549902Y1787916D02*
G01*
X4899913Y1787916D01*
X4899913Y2247907D02*
G01*
X5549902Y2247907D01*
X4899913Y1787916D02*
G01*
X4899913Y2247907D01*
X5549902Y2247907D02*
G01*
X5549902Y1787916D01*
X6207696Y5105712D02*
G01*
X5907697Y5105712D01*
X6207696Y5105712D02*
G01*
X6248196Y5105712D01*
X6248196Y5114853D01*
X5907697Y5605711D02*
G01*
X5867196Y5605711D01*
X5867196Y5596569D01*
X5907697Y5105712D02*
G01*
X5867196Y5105712D01*
X5867196Y5114853D01*
X6207696Y5605711D02*
G01*
X6248196Y5605711D01*
X6248196Y5596569D01*
X6207696Y5605711D02*
G01*
X6130325Y5605711D01*
X5907697Y5605711D02*
G01*
X5985040Y5605711D01*
X5606399Y4487199D02*
G01*
X5606399Y4611659D01*
X5539089Y4549429D02*
G01*
X5673709Y4549429D01*
X4453600Y4933299D02*
G01*
X4329140Y4933299D01*
X4391370Y4865989D02*
G01*
X4391370Y5000609D01*
D11*
X3984764Y3429228D02*
G01*
X3813030Y3429228D01*
X3813030Y3326066D01*
X3984764Y3123981D02*
G01*
X3813030Y3123981D01*
X3813030Y3227143D01*
X3984764Y3322147D02*
G01*
X3984764Y3231062D01*
X3933964Y5131028D02*
G01*
X3762230Y5131028D01*
X3762230Y5027866D01*
X3933964Y4825781D02*
G01*
X3762230Y4825781D01*
X3762230Y4928943D01*
X3933964Y5023947D02*
G01*
X3933964Y4932862D01*
X6086109Y2638419D02*
G01*
X6086109Y2766913D01*
X5902690Y2766913D01*
X5902690Y2638419D01*
X6086109Y2543180D02*
G01*
X6086109Y2414686D01*
X5902690Y2414686D01*
X5902690Y2543180D01*
X6143990Y2543180D02*
G01*
X6143990Y2414686D01*
X6327409Y2414686D01*
X6327409Y2543180D01*
X6143990Y2638419D02*
G01*
X6143990Y2766913D01*
X6327409Y2766913D01*
X6327409Y2638419D01*
X4574809Y2638419D02*
G01*
X4574809Y2766913D01*
X4391390Y2766913D01*
X4391390Y2638419D01*
X4574809Y2543180D02*
G01*
X4574809Y2414686D01*
X4391390Y2414686D01*
X4391390Y2543180D01*
X4295409Y2625719D02*
G01*
X4295409Y2754213D01*
X4111990Y2754213D01*
X4111990Y2625719D01*
X4295409Y2530480D02*
G01*
X4295409Y2401986D01*
X4111990Y2401986D01*
X4111990Y2530480D01*
X6194790Y1997080D02*
G01*
X6194790Y1868586D01*
X6378209Y1868586D01*
X6378209Y1997080D01*
X6194790Y2092319D02*
G01*
X6194790Y2220813D01*
X6378209Y2220813D01*
X6378209Y2092319D01*
X6124209Y2092319D02*
G01*
X6124209Y2220813D01*
X5940790Y2220813D01*
X5940790Y2092319D01*
X6124209Y1997080D02*
G01*
X6124209Y1868586D01*
X5940790Y1868586D01*
X5940790Y1997080D01*
X4587509Y2066919D02*
G01*
X4587509Y2195413D01*
X4404090Y2195413D01*
X4404090Y2066919D01*
X4587509Y1971680D02*
G01*
X4587509Y1843186D01*
X4404090Y1843186D01*
X4404090Y1971680D01*
X4346209Y2066919D02*
G01*
X4346209Y2195413D01*
X4162790Y2195413D01*
X4162790Y2066919D01*
X4346209Y1971680D02*
G01*
X4346209Y1843186D01*
X4162790Y1843186D01*
X4162790Y1971680D01*
X7229109Y5445119D02*
G01*
X7229109Y5573613D01*
X7045690Y5573613D01*
X7045690Y5445119D01*
X7229109Y5349880D02*
G01*
X7229109Y5221386D01*
X7045690Y5221386D01*
X7045690Y5349880D01*
X6956059Y5445119D02*
G01*
X6956059Y5573613D01*
X6772640Y5573613D01*
X6772640Y5445119D01*
X6956059Y5349880D02*
G01*
X6956059Y5221386D01*
X6772640Y5221386D01*
X6772640Y5349880D01*
X6683009Y5445119D02*
G01*
X6683009Y5573613D01*
X6499590Y5573613D01*
X6499590Y5445119D01*
X6683009Y5349880D02*
G01*
X6683009Y5221386D01*
X6499590Y5221386D01*
X6499590Y5349880D01*
X6276609Y4505319D02*
G01*
X6276609Y4633813D01*
X6093190Y4633813D01*
X6093190Y4505319D01*
X6276609Y4410080D02*
G01*
X6276609Y4281586D01*
X6093190Y4281586D01*
X6093190Y4410080D01*
X6238880Y4981209D02*
G01*
X6110386Y4981209D01*
X6110386Y4797790D01*
X6238880Y4797790D01*
X6334119Y4981209D02*
G01*
X6462613Y4981209D01*
X6462613Y4797790D01*
X6334119Y4797790D01*
X4333880Y4308109D02*
G01*
X4205386Y4308109D01*
X4205386Y4124690D01*
X4333880Y4124690D01*
X4429119Y4308109D02*
G01*
X4557613Y4308109D01*
X4557613Y4124690D01*
X4429119Y4124690D01*
D13*
X7194092Y2586101D02*
G01*
X7194092Y3586098D01*
X6579666Y2585567D02*
G01*
X6562300Y2546095D01*
X6662300Y2546095D01*
X6642608Y2585567D01*
X6512300Y2586101D02*
G01*
X6512300Y3586098D01*
X6512300Y2586101D02*
G01*
X7272299Y2586101D01*
X6512300Y3586098D02*
G01*
X7272299Y3586098D01*
X7272299Y2586101D02*
G01*
X7272299Y3586098D01*
X6732219Y2586101D02*
G01*
X6732219Y3586098D01*
X7181392Y3691001D02*
G01*
X7181392Y4690998D01*
X6566966Y3690467D02*
G01*
X6549600Y3650995D01*
X6649600Y3650995D01*
X6629908Y3690467D01*
X6499600Y3691001D02*
G01*
X6499600Y4690998D01*
X6499600Y3691001D02*
G01*
X7259599Y3691001D01*
X6499600Y4690998D02*
G01*
X7259599Y4690998D01*
X7259599Y3691001D02*
G01*
X7259599Y4690998D01*
X6719519Y3691001D02*
G01*
X6719519Y4690998D01*
X819607Y4906898D02*
G01*
X819607Y3906901D01*
X1434033Y4907432D02*
G01*
X1451399Y4946904D01*
X1351399Y4946904D01*
X1371092Y4907432D01*
X1501399Y4906898D02*
G01*
X1501399Y3906901D01*
X1501399Y4906898D02*
G01*
X741400Y4906898D01*
X1501399Y3906901D02*
G01*
X741400Y3906901D01*
X741400Y4906898D02*
G01*
X741400Y3906901D01*
X1281480Y4906898D02*
G01*
X1281480Y3906901D01*
X819607Y3674998D02*
G01*
X819607Y2675001D01*
X1434033Y3675532D02*
G01*
X1451399Y3715004D01*
X1351399Y3715004D01*
X1371092Y3675532D01*
X1501399Y3674998D02*
G01*
X1501399Y2675001D01*
X1501399Y3674998D02*
G01*
X741400Y3674998D01*
X1501399Y2675001D02*
G01*
X741400Y2675001D01*
X741400Y3674998D02*
G01*
X741400Y2675001D01*
X1281480Y3674998D02*
G01*
X1281480Y2675001D01*
D11*
X5066639Y3045579D02*
G01*
X4712360Y3045579D01*
X4712360Y3710820D01*
X5066639Y3710820D01*
X5066639Y3045579D01*
G75*
G01*
X4151440Y2955780D02*
G03*
X4166679Y2940540I15240J0D01*
G75*
G01*
X4316921Y2940540D02*
G03*
X4332160Y2955780I-1J15240D01*
G75*
G01*
X4151440Y3318020D02*
G02*
X4166679Y3333260I15240J0D01*
G75*
G01*
X4316921Y3333260D02*
G02*
X4332160Y3318020I-1J-15240D01*
G75*
G01*
X4151440Y3387580D02*
G03*
X4166679Y3372340I15240J0D01*
G75*
G01*
X4316921Y3372340D02*
G03*
X4332160Y3387580I-1J15240D01*
G75*
G01*
X4151440Y3749820D02*
G02*
X4166679Y3765060I15240J0D01*
G75*
G01*
X4316921Y3765060D02*
G02*
X4332160Y3749820I-1J-15240D01*
G75*
G01*
X5604020Y5192840D02*
G03*
X5619260Y5208080I0J15240D01*
G75*
G01*
X5619260Y5358320D02*
G03*
X5604020Y5373560I-15240J0D01*
G75*
G01*
X5241780Y5192840D02*
G02*
X5226540Y5208080I0J15240D01*
G75*
G01*
X5226540Y5358320D02*
G02*
X5241780Y5373560I15240J0D01*
G75*
G01*
X6033960Y3787920D02*
G03*
X6018721Y3803160I-15240J0D01*
G75*
G01*
X5868479Y3803160D02*
G03*
X5853240Y3787920I1J-15240D01*
G75*
G01*
X6033960Y3425680D02*
G02*
X6018721Y3410440I-15240J0D01*
G75*
G01*
X5868479Y3410440D02*
G02*
X5853240Y3425680I1J15240D01*
G75*
G01*
X5754560Y3787920D02*
G03*
X5739321Y3803160I-15240J0D01*
G75*
G01*
X5589079Y3803160D02*
G03*
X5573840Y3787920I1J-15240D01*
G75*
G01*
X5754560Y3425680D02*
G02*
X5739321Y3410440I-15240J0D01*
G75*
G01*
X5589079Y3410440D02*
G02*
X5573840Y3425680I1J15240D01*
D13*
G75*
G01*
X5985040Y5605711D02*
G03*
X6130326Y5605221I72657J3981D01*
G75*
G01*
X5886450Y4266946D02*
G03*
X5886450Y4259834I-399984J-3556D01*
G75*
G01*
X4673854Y5213350D02*
G03*
X4680966Y5213350I3556J-399984D01*
D16*
G75*
G01
X5871413Y2349500D02*
G03X5871413Y2349500I-4013J0D01*
G75*
G01
X5871413Y1778000D02*
G03X5871413Y1778000I-4013J0D01*
G75*
G01
X3064713Y2159000D02*
G03X3064713Y2159000I-4013J0D01*
G75*
G01
X6265113Y3340100D02*
G03X6265113Y3340100I-4013J0D01*
G75*
G01
X3687013Y2463800D02*
G03X3687013Y2463800I-4013J0D01*
G75*
G01
X3701339Y4148760D02*
G03X3701339Y4148760I-4013J0D01*
G75*
G01
X6582613Y4762500D02*
G03X6582613Y4762500I-4013J0D01*
G75*
G01
X5973013Y4864100D02*
G03X5973013Y4864100I-4013J0D01*
G75*
G01
X5185613Y3009900D02*
G03X5185613Y3009900I-4013J0D01*
G75*
G01
X5795213Y5626100D02*
G03X5795213Y5626100I-4013J0D01*
D13*
G75*
G01
X3489833Y5417109D02*
G03X3489833Y5417109I-50013J0D01*
G75*
G01
X3489833Y3728009D02*
G03X3489833Y3728009I-50013J0D01*
D12*
G75*
G01
X5806008Y5609717D02*
G03X5806008Y5609717I-15011J0D01*
G75*
G01
X5006416Y3085694D02*
G03X5006416Y3085694I-15011J0D01*
G75*
G01
X5191608Y3022270D02*
G03X5191608Y3022270I-15011J0D01*
M02*
